<svg xmlns="http://www.w3.org/2000/svg" xmlns:xlink="http://www.w3.org/1999/xlink" width="883pt" height="616pt" viewBox="0.00 0.00 883.25 616.00">
<g id="graph0" class="graph" transform="scale(1 1) rotate(0) translate(4 612)">
<title>G</title>
<polygon fill="white" stroke="none" points="-4,4 -4,-612 879.25,-612 879.25,4 -4,4"/>
<!-- room1 -->
<g id="node1" class="node">
<title>room1</title>
<polygon fill="lightblue" stroke="lightblue" points="542.61,-608 194.89,-608 194.89,-566.4 542.61,-566.4 542.61,-608"/>
<text text-anchor="middle" x="368.75" y="-591.4" font-family="Times,serif" font-size="14.00">Комната №1</text>
<text text-anchor="middle" x="368.75" y="-574.6" font-family="Times,serif" font-size="14.00">Вы в начале лабиринта. Сможете ли из него выбраться?</text>
</g>
<!-- room2 -->
<g id="node2" class="node">
<title>room2</title>
<polygon fill="lightblue" stroke="lightblue" points="501,-513.6 236.5,-513.6 236.5,-472 501,-472 501,-513.6"/>
<text text-anchor="middle" x="368.75" y="-497" font-family="Times,serif" font-size="14.00">Комната №2</text>
<text text-anchor="middle" x="368.75" y="-480.2" font-family="Times,serif" font-size="14.00">Квадратная комната с красными стенами.</text>
</g>
<!-- room1&#45;&gt;room2 -->
<g id="edge1" class="edge">
<title>room1-&gt;room2</title>
<path fill="none" stroke="black" d="M330.32,-566.09C324.25,-561.15 318.81,-555.27 315.25,-548.4 310.17,-538.59 314.05,-529.39 321.6,-521.43"/>
<polygon fill="black" stroke="black" points="323.83,-524.14 329.04,-514.91 319.21,-518.87 323.83,-524.14"/>
<text text-anchor="middle" x="359" y="-535.8" font-family="Times,serif" font-size="14.00">Идти на север.</text>
</g>
<!-- room2&#45;&gt;room1 -->
<g id="edge3" class="edge">
<title>room2-&gt;room1</title>
<path fill="none" stroke="black" d="M392.3,-514.08C400.84,-523.96 407.39,-536.31 402.75,-548.4 401.59,-551.41 400.08,-554.34 398.32,-557.13"/>
<polygon fill="black" stroke="black" points="395.7,-554.79 392.53,-564.9 401.32,-558.97 395.7,-554.79"/>
<text text-anchor="middle" x="437.54" y="-535.8" font-family="Times,serif" font-size="14.00">Идти на юг.</text>
</g>
<!-- room3 -->
<g id="node3" class="node">
<title>room3</title>
<polygon fill="lightblue" stroke="lightblue" points="356.5,-419.2 127,-419.2 127,-377.6 356.5,-377.6 356.5,-419.2"/>
<text text-anchor="middle" x="241.75" y="-402.6" font-family="Times,serif" font-size="14.00">Комната №3</text>
<text text-anchor="middle" x="241.75" y="-385.8" font-family="Times,serif" font-size="14.00">Круглая комната с синими стенами.</text>
</g>
<!-- room2&#45;&gt;room3 -->
<g id="edge2" class="edge">
<title>room2-&gt;room3</title>
<path fill="none" stroke="black" d="M236.3,-472.43C219.56,-467.5 206.2,-461.43 200.25,-454 193.5,-445.56 196.75,-436.25 203.76,-427.74"/>
<polygon fill="black" stroke="black" points="206.22,-430.22 210.73,-420.63 201.23,-425.32 206.22,-430.22"/>
<text text-anchor="middle" x="244" y="-441.4" font-family="Times,serif" font-size="14.00">Идти на запад.</text>
</g>
<!-- room4 -->
<g id="node4" class="node">
<title>room4</title>
<polygon fill="lightblue" stroke="lightblue" points="670,-419.2 419.5,-419.2 419.5,-377.6 670,-377.6 670,-419.2"/>
<text text-anchor="middle" x="544.75" y="-402.6" font-family="Times,serif" font-size="14.00">Комната №4</text>
<text text-anchor="middle" x="544.75" y="-385.8" font-family="Times,serif" font-size="14.00">Квадратная комната с белыми стенами.</text>
</g>
<!-- room2&#45;&gt;room4 -->
<g id="edge4" class="edge">
<title>room2-&gt;room4</title>
<path fill="none" stroke="black" d="M386.99,-471.58C398.22,-460.14 413.46,-446.35 429.25,-437.2 437.96,-432.15 447.44,-427.67 457.1,-423.72"/>
<polygon fill="black" stroke="black" points="458.15,-427.07 466.21,-420.19 455.62,-420.54 458.15,-427.07"/>
<text text-anchor="middle" x="476.5" y="-441.4" font-family="Times,serif" font-size="14.00">Идти на восток.</text>
</g>
<!-- room3&#45;&gt;room2 -->
<g id="edge6" class="edge">
<title>room3-&gt;room2</title>
<path fill="none" stroke="black" d="M266.45,-419.63C279.56,-430.15 296.06,-443.07 311.25,-454 316.53,-457.8 322.17,-461.69 327.77,-465.47"/>
<polygon fill="black" stroke="black" points="325.57,-468.21 335.83,-470.83 329.44,-462.38 325.57,-468.21"/>
<text text-anchor="middle" x="358.5" y="-441.4" font-family="Times,serif" font-size="14.00">Идти на восток.</text>
</g>
<!-- room5 -->
<g id="node5" class="node">
<title>room5</title>
<polygon fill="lightblue" stroke="lightblue" points="131.5,-324.8 0,-324.8 0,-283.2 131.5,-283.2 131.5,-324.8"/>
<text text-anchor="middle" x="65.75" y="-308.2" font-family="Times,serif" font-size="14.00">Комната №5</text>
<text text-anchor="middle" x="65.75" y="-291.4" font-family="Times,serif" font-size="14.00">Тупиковая комната</text>
</g>
<!-- room3&#45;&gt;room5 -->
<g id="edge5" class="edge">
<title>room3-&gt;room5</title>
<path fill="none" stroke="black" d="M126.76,-387.73C90.35,-382.12 56.59,-373.33 45.25,-359.6 39.43,-352.55 40.26,-343.68 43.78,-335.16"/>
<polygon fill="black" stroke="black" points="46.83,-336.88 48.43,-326.4 40.65,-333.59 46.83,-336.88"/>
<text text-anchor="middle" x="78.5" y="-347" font-family="Times,serif" font-size="14.00">Идти на юг.</text>
</g>
<!-- room6 -->
<g id="node6" class="node">
<title>room6</title>
<polygon fill="lightblue" stroke="lightblue" points="423.3,-324.8 160.2,-324.8 160.2,-283.2 423.3,-283.2 423.3,-324.8"/>
<text text-anchor="middle" x="291.75" y="-308.2" font-family="Times,serif" font-size="14.00">Комната №6</text>
<text text-anchor="middle" x="291.75" y="-291.4" font-family="Times,serif" font-size="14.00">Комната с лифтом и числом "-5" на стене.</text>
</g>
<!-- room3&#45;&gt;room6 -->
<g id="edge7" class="edge">
<title>room3-&gt;room6</title>
<path fill="none" stroke="black" d="M239.76,-377.17C239.58,-366.4 240.8,-353.26 246.25,-342.8 248.06,-339.32 250.34,-336.04 252.91,-332.98"/>
<polygon fill="black" stroke="black" points="255.23,-335.61 259.72,-326.01 250.23,-330.72 255.23,-335.61"/>
<text text-anchor="middle" x="290" y="-347" font-family="Times,serif" font-size="14.00">Идти на запад.</text>
</g>
<!-- room4&#45;&gt;room2 -->
<g id="edge9" class="edge">
<title>room4-&gt;room2</title>
<path fill="none" stroke="black" d="M541.76,-419.46C539,-431.12 533.74,-445.21 523.75,-454 518.5,-458.62 512.77,-462.7 506.71,-466.3"/>
<polygon fill="black" stroke="black" points="505.42,-463.02 498.28,-470.84 508.74,-469.18 505.42,-463.02"/>
<text text-anchor="middle" x="579.36" y="-441.4" font-family="Times,serif" font-size="14.00">Идти на запад.</text>
</g>
<!-- room7 -->
<g id="node7" class="node">
<title>room7</title>
<polygon fill="lightblue" stroke="lightblue" points="875.25,-324.8 446.25,-324.8 446.25,-283.2 875.25,-283.2 875.25,-324.8"/>
<text text-anchor="middle" x="660.75" y="-308.2" font-family="Times,serif" font-size="14.00">Комната №7</text>
<text text-anchor="middle" x="660.75" y="-291.4" font-family="Times,serif" font-size="14.00">Круглая комната с красным полом и рисунком в виде белого кирпича</text>
</g>
<!-- room4&#45;&gt;room7 -->
<g id="edge8" class="edge">
<title>room4-&gt;room7</title>
<path fill="none" stroke="black" d="M539.59,-377.18C537.96,-366.03 538.14,-352.51 545.25,-342.8 548.16,-338.83 551.5,-335.26 555.16,-332.07"/>
<polygon fill="black" stroke="black" points="557.14,-334.96 563.05,-326.17 552.95,-329.35 557.14,-334.96"/>
<text text-anchor="middle" x="592.5" y="-347" font-family="Times,serif" font-size="14.00">Идти на восток.</text>
</g>
<!-- room5&#45;&gt;room3 -->
<g id="edge10" class="edge">
<title>room5-&gt;room3</title>
<path fill="none" stroke="black" d="M93.53,-325.09C109.4,-336.07 129.93,-349.45 149.25,-359.6 157.95,-364.17 167.34,-368.57 176.67,-372.65"/>
<polygon fill="black" stroke="black" points="175.19,-375.82 185.76,-376.52 177.93,-369.38 175.19,-375.82"/>
<text text-anchor="middle" x="193" y="-347" font-family="Times,serif" font-size="14.00">Идти на север.</text>
</g>
<!-- room6&#45;&gt;room3 -->
<g id="edge12" class="edge">
<title>room6-&gt;room3</title>
<path fill="none" stroke="black" d="M322.06,-325.27C333.3,-335.36 341.61,-347.88 333.75,-359.6 331.05,-363.63 327.83,-367.24 324.24,-370.46"/>
<polygon fill="black" stroke="black" points="322.3,-367.54 316.46,-376.38 326.54,-373.11 322.3,-367.54"/>
<text text-anchor="middle" x="384.08" y="-347" font-family="Times,serif" font-size="14.00">Идти на восток.</text>
</g>
<!-- room8 -->
<g id="node8" class="node">
<title>room8</title>
<polygon fill="lightblue" stroke="lightblue" points="419.96,-230.4 161.54,-230.4 161.54,-188.8 419.96,-188.8 419.96,-230.4"/>
<text text-anchor="middle" x="290.75" y="-213.8" font-family="Times,serif" font-size="14.00">Комната №8</text>
<text text-anchor="middle" x="290.75" y="-197" font-family="Times,serif" font-size="14.00">Комната с лифтом и числом "1" на стене.</text>
</g>
<!-- room6&#45;&gt;room8 -->
<g id="edge11" class="edge">
<title>room6-&gt;room8</title>
<path fill="none" stroke="black" d="M252.35,-282.79C246.27,-277.88 240.83,-272.04 237.25,-265.2 232.13,-255.41 235.99,-246.22 243.54,-238.26"/>
<polygon fill="black" stroke="black" points="245.77,-240.96 250.99,-231.74 241.16,-235.7 245.77,-240.96"/>
<text text-anchor="middle" x="281" y="-252.6" font-family="Times,serif" font-size="14.00">Идти на север.</text>
</g>
<!-- room7&#45;&gt;room4 -->
<g id="edge13" class="edge">
<title>room7-&gt;room4</title>
<path fill="none" stroke="black" d="M657.17,-325.1C654.22,-336.49 648.96,-350.28 639.75,-359.6 635.38,-364.02 630.43,-367.94 625.14,-371.4"/>
<polygon fill="black" stroke="black" points="623.46,-368.33 616.61,-376.41 627.01,-374.37 623.46,-368.33"/>
<text text-anchor="middle" x="694.15" y="-347" font-family="Times,serif" font-size="14.00">Идти на запад.</text>
</g>
<!-- room8&#45;&gt;room6 -->
<g id="edge15" class="edge">
<title>room8-&gt;room6</title>
<path fill="none" stroke="black" d="M313.63,-230.69C318.16,-235.95 322.28,-241.97 324.75,-248.4 328.05,-257 325.72,-265.78 321.07,-273.71"/>
<polygon fill="black" stroke="black" points="318.35,-271.5 315.36,-281.66 324.04,-275.58 318.35,-271.5"/>
<text text-anchor="middle" x="359.54" y="-252.6" font-family="Times,serif" font-size="14.00">Идти на юг.</text>
</g>
<!-- room9 -->
<g id="node9" class="node">
<title>room9</title>
<polygon fill="lightblue" stroke="lightblue" points="301.75,-136 187.75,-136 187.75,-94.4 301.75,-94.4 301.75,-136"/>
<text text-anchor="middle" x="244.75" y="-119.4" font-family="Times,serif" font-size="14.00">Комната №9</text>
<text text-anchor="middle" x="244.75" y="-102.6" font-family="Times,serif" font-size="14.00">Тёмная комната.</text>
</g>
<!-- room8&#45;&gt;room9 -->
<g id="edge14" class="edge">
<title>room8-&gt;room9</title>
<path fill="none" stroke="black" d="M200.16,-188.43C192.84,-183.72 186.33,-177.92 181.25,-170.8 173.93,-160.53 178.86,-150.96 188.57,-142.78"/>
<polygon fill="black" stroke="black" points="190.37,-145.8 196.47,-137.14 186.3,-140.11 190.37,-145.8"/>
<text text-anchor="middle" x="225" y="-158.2" font-family="Times,serif" font-size="14.00">Идти на север.</text>
</g>
<!-- room10 -->
<g id="node10" class="node">
<title>room10</title>
<polygon fill="lightblue" stroke="lightblue" points="407.16,-41.6 210.34,-41.6 210.34,0 407.16,0 407.16,-41.6"/>
<text text-anchor="middle" x="308.75" y="-25" font-family="Times,serif" font-size="14.00">Выход</text>
<text text-anchor="middle" x="308.75" y="-8.2" font-family="Times,serif" font-size="14.00">Вы нашли выход! Поздравляем!</text>
</g>
<!-- room8&#45;&gt;room10 -->
<g id="edge16" class="edge">
<title>room8-&gt;room10</title>
<path fill="none" stroke="black" d="M330.23,-188.37C336.66,-183.44 342.57,-177.59 346.75,-170.8 368.92,-134.78 356.08,-118.61 358.75,-76.4 359.22,-68.95 362.08,-66.28 358.75,-59.6 357.08,-56.24 354.95,-53.1 352.51,-50.18"/>
<polygon fill="black" stroke="black" points="355.06,-47.77 345.52,-43.15 350.1,-52.71 355.06,-47.77"/>
<text text-anchor="middle" x="403.81" y="-111" font-family="Times,serif" font-size="14.00">Идти на запад.</text>
</g>
<!-- room9&#45;&gt;room8 -->
<g id="edge17" class="edge">
<title>room9-&gt;room8</title>
<path fill="none" stroke="black" d="M258.4,-136.2C261.99,-141.84 265.7,-148.05 268.75,-154 272.62,-161.54 276.29,-169.92 279.49,-177.81"/>
<polygon fill="black" stroke="black" points="276.21,-179.05 283.11,-187.09 282.73,-176.5 276.21,-179.05"/>
<text text-anchor="middle" x="309.52" y="-158.2" font-family="Times,serif" font-size="14.00">Идти на юг.</text>
</g>
<!-- room9&#45;&gt;room10 -->
<g id="edge18" class="edge">
<title>room9-&gt;room10</title>
<path fill="none" stroke="black" d="M240.53,-94C239.33,-83.12 239.66,-69.86 245.59,-59.6 247.73,-55.9 250.38,-52.51 253.39,-49.43"/>
<polygon fill="black" stroke="black" points="255.61,-52.14 260.9,-42.96 251.04,-46.84 255.61,-52.14"/>
<text text-anchor="middle" x="302.17" y="-63.8" font-family="Times,serif" font-size="14.00">Идти на юго-запад.</text>
</g>
</g>
</svg>